<mxfile host="app.diagrams.net" modified="2023-12-13T17:44:14.769Z" agent="Mozilla/5.0 (X11; Linux x86_64) AppleWebKit/537.36 (KHTML, like Gecko) Chrome/115.0.0.0 Safari/537.36" etag="MdDDte8u8cnE7LGAskIM" version="22.1.8" type="github">
  <diagram name="Page-1" id="mafzAm1S85jHaPfYKTlC">
    <mxGraphModel dx="2261" dy="1972" grid="1" gridSize="10" guides="1" tooltips="1" connect="1" arrows="1" fold="1" page="1" pageScale="1" pageWidth="827" pageHeight="1169" math="0" shadow="0">
      <root>
        <mxCell id="0" />
        <mxCell id="1" parent="0" />
        <mxCell id="KW8JtwyekvotCiW6EKbZ-1" value="user 1" style="rounded=0;whiteSpace=wrap;html=1;" vertex="1" parent="1">
          <mxGeometry x="-280" y="160" width="60" height="30" as="geometry" />
        </mxCell>
        <mxCell id="KW8JtwyekvotCiW6EKbZ-2" value="user 3" style="rounded=0;whiteSpace=wrap;html=1;" vertex="1" parent="1">
          <mxGeometry x="-285" y="450" width="70" height="30" as="geometry" />
        </mxCell>
        <mxCell id="KW8JtwyekvotCiW6EKbZ-3" value="user 2" style="rounded=0;whiteSpace=wrap;html=1;" vertex="1" parent="1">
          <mxGeometry x="-280" y="290" width="60" height="30" as="geometry" />
        </mxCell>
        <mxCell id="KW8JtwyekvotCiW6EKbZ-4" value="A&lt;br&gt;L&lt;br&gt;B" style="rounded=0;whiteSpace=wrap;html=1;" vertex="1" parent="1">
          <mxGeometry x="-100" y="80" width="30" height="630" as="geometry" />
        </mxCell>
        <mxCell id="KW8JtwyekvotCiW6EKbZ-5" value="user service" style="rounded=0;whiteSpace=wrap;html=1;" vertex="1" parent="1">
          <mxGeometry x="90" y="120" width="120" height="60" as="geometry" />
        </mxCell>
        <mxCell id="KW8JtwyekvotCiW6EKbZ-7" value="" style="endArrow=classic;html=1;rounded=0;edgeStyle=orthogonalEdgeStyle;entryX=-0.1;entryY=0.148;entryDx=0;entryDy=0;entryPerimeter=0;" edge="1" parent="1" target="KW8JtwyekvotCiW6EKbZ-4">
          <mxGeometry relative="1" as="geometry">
            <mxPoint x="-215" y="174.5" as="sourcePoint" />
            <mxPoint x="-115" y="174.5" as="targetPoint" />
          </mxGeometry>
        </mxCell>
        <mxCell id="KW8JtwyekvotCiW6EKbZ-8" value="Label" style="edgeLabel;resizable=0;html=1;align=center;verticalAlign=middle;" connectable="0" vertex="1" parent="KW8JtwyekvotCiW6EKbZ-7">
          <mxGeometry relative="1" as="geometry">
            <mxPoint x="-570" y="-235" as="offset" />
          </mxGeometry>
        </mxCell>
        <mxCell id="KW8JtwyekvotCiW6EKbZ-9" value="" style="endArrow=classic;html=1;rounded=0;edgeStyle=orthogonalEdgeStyle;entryX=-0.067;entryY=0.606;entryDx=0;entryDy=0;entryPerimeter=0;" edge="1" parent="1" target="KW8JtwyekvotCiW6EKbZ-4">
          <mxGeometry relative="1" as="geometry">
            <mxPoint x="-215" y="464.5" as="sourcePoint" />
            <mxPoint x="-115" y="464.5" as="targetPoint" />
          </mxGeometry>
        </mxCell>
        <mxCell id="KW8JtwyekvotCiW6EKbZ-10" value="Label" style="edgeLabel;resizable=0;html=1;align=center;verticalAlign=middle;" connectable="0" vertex="1" parent="KW8JtwyekvotCiW6EKbZ-9">
          <mxGeometry relative="1" as="geometry">
            <mxPoint x="-570" y="-235" as="offset" />
          </mxGeometry>
        </mxCell>
        <mxCell id="KW8JtwyekvotCiW6EKbZ-11" value="" style="endArrow=classic;html=1;rounded=0;edgeStyle=orthogonalEdgeStyle;entryX=-0.067;entryY=0.356;entryDx=0;entryDy=0;entryPerimeter=0;" edge="1" parent="1" target="KW8JtwyekvotCiW6EKbZ-4">
          <mxGeometry relative="1" as="geometry">
            <mxPoint x="-215" y="304.5" as="sourcePoint" />
            <mxPoint x="-115" y="304.5" as="targetPoint" />
          </mxGeometry>
        </mxCell>
        <mxCell id="KW8JtwyekvotCiW6EKbZ-12" value="Label" style="edgeLabel;resizable=0;html=1;align=center;verticalAlign=middle;" connectable="0" vertex="1" parent="KW8JtwyekvotCiW6EKbZ-11">
          <mxGeometry relative="1" as="geometry">
            <mxPoint x="-570" y="-235" as="offset" />
          </mxGeometry>
        </mxCell>
        <mxCell id="KW8JtwyekvotCiW6EKbZ-13" value="" style="endArrow=classic;html=1;rounded=0;edgeStyle=orthogonalEdgeStyle;entryX=0;entryY=0.25;entryDx=0;entryDy=0;" edge="1" parent="1" target="KW8JtwyekvotCiW6EKbZ-5">
          <mxGeometry relative="1" as="geometry">
            <mxPoint x="-70" y="180" as="sourcePoint" />
            <mxPoint x="30" y="180" as="targetPoint" />
          </mxGeometry>
        </mxCell>
        <mxCell id="KW8JtwyekvotCiW6EKbZ-14" value="Label" style="edgeLabel;resizable=0;html=1;align=center;verticalAlign=middle;" connectable="0" vertex="1" parent="KW8JtwyekvotCiW6EKbZ-13">
          <mxGeometry relative="1" as="geometry" />
        </mxCell>
        <mxCell id="KW8JtwyekvotCiW6EKbZ-15" value="dyanmo db main" style="shape=cylinder3;whiteSpace=wrap;html=1;boundedLbl=1;backgroundOutline=1;size=15;" vertex="1" parent="1">
          <mxGeometry x="330" y="20" width="130" height="100" as="geometry" />
        </mxCell>
        <mxCell id="KW8JtwyekvotCiW6EKbZ-16" value="Redsi cluster" style="shape=trapezoid;perimeter=trapezoidPerimeter;whiteSpace=wrap;html=1;fixedSize=1;" vertex="1" parent="1">
          <mxGeometry x="-20" y="10" width="120" height="60" as="geometry" />
        </mxCell>
        <mxCell id="KW8JtwyekvotCiW6EKbZ-17" value="" style="endArrow=classic;html=1;rounded=0;edgeStyle=orthogonalEdgeStyle;" edge="1" parent="1" target="KW8JtwyekvotCiW6EKbZ-15">
          <mxGeometry relative="1" as="geometry">
            <mxPoint x="210" y="159" as="sourcePoint" />
            <mxPoint x="310" y="159" as="targetPoint" />
          </mxGeometry>
        </mxCell>
        <mxCell id="KW8JtwyekvotCiW6EKbZ-18" value="Label" style="edgeLabel;resizable=0;html=1;align=center;verticalAlign=middle;" connectable="0" vertex="1" parent="KW8JtwyekvotCiW6EKbZ-17">
          <mxGeometry relative="1" as="geometry">
            <mxPoint x="-10" as="offset" />
          </mxGeometry>
        </mxCell>
        <mxCell id="KW8JtwyekvotCiW6EKbZ-19" value="" style="endArrow=classic;html=1;rounded=0;edgeStyle=orthogonalEdgeStyle;" edge="1" parent="1">
          <mxGeometry relative="1" as="geometry">
            <mxPoint x="110" y="110" as="sourcePoint" />
            <mxPoint x="150" y="49.5" as="targetPoint" />
          </mxGeometry>
        </mxCell>
        <mxCell id="KW8JtwyekvotCiW6EKbZ-20" value="Label" style="edgeLabel;resizable=0;html=1;align=center;verticalAlign=middle;" connectable="0" vertex="1" parent="KW8JtwyekvotCiW6EKbZ-19">
          <mxGeometry relative="1" as="geometry" />
        </mxCell>
        <mxCell id="KW8JtwyekvotCiW6EKbZ-21" value="" style="endArrow=classic;html=1;rounded=0;edgeStyle=orthogonalEdgeStyle;" edge="1" parent="1" target="KW8JtwyekvotCiW6EKbZ-5">
          <mxGeometry relative="1" as="geometry">
            <mxPoint x="80" y="39.5" as="sourcePoint" />
            <mxPoint x="50" y="110" as="targetPoint" />
          </mxGeometry>
        </mxCell>
        <mxCell id="KW8JtwyekvotCiW6EKbZ-22" value="Label" style="edgeLabel;resizable=0;html=1;align=center;verticalAlign=middle;rotation=90;" connectable="0" vertex="1" parent="KW8JtwyekvotCiW6EKbZ-21">
          <mxGeometry relative="1" as="geometry" />
        </mxCell>
        <mxCell id="KW8JtwyekvotCiW6EKbZ-29" value="" style="endArrow=classic;html=1;rounded=0;edgeStyle=orthogonalEdgeStyle;entryX=1;entryY=1;entryDx=0;entryDy=0;exitX=0;exitY=1;exitDx=0;exitDy=-15;exitPerimeter=0;" edge="1" parent="1" source="KW8JtwyekvotCiW6EKbZ-15" target="KW8JtwyekvotCiW6EKbZ-5">
          <mxGeometry relative="1" as="geometry">
            <mxPoint x="140" y="240" as="sourcePoint" />
            <mxPoint x="240" y="240" as="targetPoint" />
          </mxGeometry>
        </mxCell>
        <mxCell id="KW8JtwyekvotCiW6EKbZ-30" value="Label" style="edgeLabel;resizable=0;html=1;align=center;verticalAlign=middle;" connectable="0" vertex="1" parent="KW8JtwyekvotCiW6EKbZ-29">
          <mxGeometry relative="1" as="geometry" />
        </mxCell>
        <mxCell id="KW8JtwyekvotCiW6EKbZ-31" value="call service" style="rounded=0;whiteSpace=wrap;html=1;" vertex="1" parent="1">
          <mxGeometry x="110" y="370" width="120" height="60" as="geometry" />
        </mxCell>
        <mxCell id="KW8JtwyekvotCiW6EKbZ-34" value="feedback service" style="rounded=0;whiteSpace=wrap;html=1;" vertex="1" parent="1">
          <mxGeometry x="140" y="620" width="120" height="60" as="geometry" />
        </mxCell>
        <mxCell id="KW8JtwyekvotCiW6EKbZ-37" value="" style="endArrow=classic;startArrow=classic;html=1;rounded=0;edgeStyle=orthogonalEdgeStyle;entryX=0.008;entryY=0.65;entryDx=0;entryDy=0;entryPerimeter=0;exitX=1.067;exitY=0.922;exitDx=0;exitDy=0;exitPerimeter=0;" edge="1" parent="1" source="KW8JtwyekvotCiW6EKbZ-4" target="KW8JtwyekvotCiW6EKbZ-34">
          <mxGeometry width="50" height="50" relative="1" as="geometry">
            <mxPoint x="-70" y="479.5" as="sourcePoint" />
            <mxPoint x="70" y="470" as="targetPoint" />
          </mxGeometry>
        </mxCell>
        <mxCell id="KW8JtwyekvotCiW6EKbZ-38" value="" style="endArrow=classic;startArrow=classic;html=1;rounded=0;edgeStyle=orthogonalEdgeStyle;entryX=0;entryY=0.75;entryDx=0;entryDy=0;" edge="1" parent="1" target="KW8JtwyekvotCiW6EKbZ-31">
          <mxGeometry width="50" height="50" relative="1" as="geometry">
            <mxPoint x="-70" y="340" as="sourcePoint" />
            <mxPoint x="-20" y="290" as="targetPoint" />
          </mxGeometry>
        </mxCell>
        <mxCell id="KW8JtwyekvotCiW6EKbZ-39" value="Kafka" style="shape=callout;whiteSpace=wrap;html=1;perimeter=calloutPerimeter;" vertex="1" parent="1">
          <mxGeometry x="370" y="300" width="140" height="100" as="geometry" />
        </mxCell>
        <mxCell id="KW8JtwyekvotCiW6EKbZ-40" value="" style="endArrow=classic;startArrow=classic;html=1;rounded=0;edgeStyle=orthogonalEdgeStyle;entryX=0.575;entryY=1;entryDx=0;entryDy=0;entryPerimeter=0;exitX=-0.014;exitY=0.28;exitDx=0;exitDy=0;exitPerimeter=0;" edge="1" parent="1" source="KW8JtwyekvotCiW6EKbZ-39" target="KW8JtwyekvotCiW6EKbZ-5">
          <mxGeometry width="50" height="50" relative="1" as="geometry">
            <mxPoint x="390" y="440" as="sourcePoint" />
            <mxPoint x="440" y="390" as="targetPoint" />
          </mxGeometry>
        </mxCell>
        <mxCell id="KW8JtwyekvotCiW6EKbZ-41" value="" style="endArrow=classic;startArrow=classic;html=1;rounded=0;edgeStyle=orthogonalEdgeStyle;entryX=0;entryY=0.55;entryDx=0;entryDy=0;entryPerimeter=0;exitX=1;exitY=0.75;exitDx=0;exitDy=0;" edge="1" parent="1" source="KW8JtwyekvotCiW6EKbZ-31" target="KW8JtwyekvotCiW6EKbZ-39">
          <mxGeometry width="50" height="50" relative="1" as="geometry">
            <mxPoint x="390" y="440" as="sourcePoint" />
            <mxPoint x="440" y="390" as="targetPoint" />
          </mxGeometry>
        </mxCell>
        <mxCell id="KW8JtwyekvotCiW6EKbZ-42" value="Analytics DB&lt;br&gt;hadoop , clickhouse" style="shape=cylinder3;whiteSpace=wrap;html=1;boundedLbl=1;backgroundOutline=1;size=15;" vertex="1" parent="1">
          <mxGeometry x="620" y="240" width="250" height="170" as="geometry" />
        </mxCell>
        <mxCell id="KW8JtwyekvotCiW6EKbZ-43" value="" style="endArrow=classic;startArrow=classic;html=1;rounded=0;edgeStyle=orthogonalEdgeStyle;entryX=-0.004;entryY=0.371;entryDx=0;entryDy=0;entryPerimeter=0;exitX=1;exitY=0.25;exitDx=0;exitDy=0;exitPerimeter=0;" edge="1" parent="1" source="KW8JtwyekvotCiW6EKbZ-39" target="KW8JtwyekvotCiW6EKbZ-42">
          <mxGeometry width="50" height="50" relative="1" as="geometry">
            <mxPoint x="390" y="440" as="sourcePoint" />
            <mxPoint x="440" y="390" as="targetPoint" />
          </mxGeometry>
        </mxCell>
        <mxCell id="KW8JtwyekvotCiW6EKbZ-44" value="dyanmo db" style="shape=cylinder3;whiteSpace=wrap;html=1;boundedLbl=1;backgroundOutline=1;size=15;" vertex="1" parent="1">
          <mxGeometry x="330" y="450" width="130" height="100" as="geometry" />
        </mxCell>
        <mxCell id="KW8JtwyekvotCiW6EKbZ-45" value="" style="endArrow=classic;startArrow=classic;html=1;rounded=0;edgeStyle=orthogonalEdgeStyle;exitX=0;exitY=0;exitDx=0;exitDy=67.5;exitPerimeter=0;entryX=1;entryY=0.25;entryDx=0;entryDy=0;" edge="1" parent="1" source="KW8JtwyekvotCiW6EKbZ-44" target="KW8JtwyekvotCiW6EKbZ-31">
          <mxGeometry width="50" height="50" relative="1" as="geometry">
            <mxPoint x="124.75" y="479.5" as="sourcePoint" />
            <mxPoint x="174.75" y="429.5" as="targetPoint" />
          </mxGeometry>
        </mxCell>
        <mxCell id="KW8JtwyekvotCiW6EKbZ-46" value="Notification service" style="rounded=0;whiteSpace=wrap;html=1;" vertex="1" parent="1">
          <mxGeometry x="140" y="730" width="120" height="60" as="geometry" />
        </mxCell>
        <mxCell id="KW8JtwyekvotCiW6EKbZ-47" value="" style="endArrow=classic;startArrow=classic;html=1;rounded=0;edgeStyle=orthogonalEdgeStyle;entryX=0;entryY=0;entryDx=140;entryDy=70;entryPerimeter=0;exitX=1.025;exitY=0.117;exitDx=0;exitDy=0;exitPerimeter=0;" edge="1" parent="1" source="KW8JtwyekvotCiW6EKbZ-34" target="KW8JtwyekvotCiW6EKbZ-39">
          <mxGeometry width="50" height="50" relative="1" as="geometry">
            <mxPoint x="390" y="440" as="sourcePoint" />
            <mxPoint x="440" y="390" as="targetPoint" />
          </mxGeometry>
        </mxCell>
        <mxCell id="KW8JtwyekvotCiW6EKbZ-49" value="" style="endArrow=classic;startArrow=classic;html=1;rounded=0;edgeStyle=orthogonalEdgeStyle;exitX=0;exitY=0.5;exitDx=0;exitDy=0;" edge="1" parent="1" source="KW8JtwyekvotCiW6EKbZ-46" target="KW8JtwyekvotCiW6EKbZ-34">
          <mxGeometry width="50" height="50" relative="1" as="geometry">
            <mxPoint x="290" y="740" as="sourcePoint" />
            <mxPoint x="195" y="680" as="targetPoint" />
          </mxGeometry>
        </mxCell>
        <mxCell id="KW8JtwyekvotCiW6EKbZ-51" value="dyanmo db&lt;br&gt;" style="shape=cylinder3;whiteSpace=wrap;html=1;boundedLbl=1;backgroundOutline=1;size=15;" vertex="1" parent="1">
          <mxGeometry x="450" y="650" width="160" height="130" as="geometry" />
        </mxCell>
        <mxCell id="KW8JtwyekvotCiW6EKbZ-52" value="" style="endArrow=classic;startArrow=classic;html=1;rounded=0;edgeStyle=orthogonalEdgeStyle;entryX=0;entryY=0.5;entryDx=0;entryDy=0;entryPerimeter=0;" edge="1" parent="1" target="KW8JtwyekvotCiW6EKbZ-51">
          <mxGeometry width="50" height="50" relative="1" as="geometry">
            <mxPoint x="260" y="660" as="sourcePoint" />
            <mxPoint x="310" y="610" as="targetPoint" />
          </mxGeometry>
        </mxCell>
        <mxCell id="KW8JtwyekvotCiW6EKbZ-53" value="" style="endArrow=classic;startArrow=classic;html=1;rounded=0;edgeStyle=orthogonalEdgeStyle;exitX=0;exitY=0;exitDx=0;exitDy=50;exitPerimeter=0;" edge="1" parent="1" source="KW8JtwyekvotCiW6EKbZ-42" target="KW8JtwyekvotCiW6EKbZ-54">
          <mxGeometry width="50" height="50" relative="1" as="geometry">
            <mxPoint x="719.75" y="119.5" as="sourcePoint" />
            <mxPoint x="769.75" y="69.5" as="targetPoint" />
          </mxGeometry>
        </mxCell>
        <mxCell id="KW8JtwyekvotCiW6EKbZ-54" value="SPAM ENGINE" style="rounded=0;whiteSpace=wrap;html=1;" vertex="1" parent="1">
          <mxGeometry x="500" y="160" width="120" height="60" as="geometry" />
        </mxCell>
        <mxCell id="KW8JtwyekvotCiW6EKbZ-55" value="" style="endArrow=classic;startArrow=classic;html=1;rounded=0;edgeStyle=orthogonalEdgeStyle;entryX=0;entryY=0.5;entryDx=0;entryDy=0;exitX=1;exitY=0.25;exitDx=0;exitDy=0;" edge="1" parent="1" source="KW8JtwyekvotCiW6EKbZ-5" target="KW8JtwyekvotCiW6EKbZ-54">
          <mxGeometry width="50" height="50" relative="1" as="geometry">
            <mxPoint x="380" y="240" as="sourcePoint" />
            <mxPoint x="430" y="190" as="targetPoint" />
          </mxGeometry>
        </mxCell>
      </root>
    </mxGraphModel>
  </diagram>
</mxfile>
